<?xml version="1.0" encoding="UTF-8" standalone="no"?>
<svg
   xmlns:dc="http://purl.org/dc/elements/1.1/"
   xmlns:cc="http://creativecommons.org/ns#"
   xmlns:rdf="http://www.w3.org/1999/02/22-rdf-syntax-ns#"
   xmlns:svg="http://www.w3.org/2000/svg"
   xmlns="http://www.w3.org/2000/svg"
   xmlns:sodipodi="http://sodipodi.sourceforge.net/DTD/sodipodi-0.dtd"
   xmlns:inkscape="http://www.inkscape.org/namespaces/inkscape"
   width="64"
   version="1.1"
   height="64"
   viewBox="0 0 64 64"
   enable-background="new 0 0 64 64"
   id="svg6"
   sodipodi:docname="close.svg"
   inkscape:version="0.92.4 (5da689c313, 2019-01-14)">
  <metadata
     id="metadata12">
    <rdf:RDF>
      <cc:Work
         rdf:about="">
        <dc:format>image/svg+xml</dc:format>
        <dc:type
           rdf:resource="http://purl.org/dc/dcmitype/StillImage" />
        <dc:title></dc:title>
      </cc:Work>
    </rdf:RDF>
  </metadata>
  <defs
     id="defs10" />
  <sodipodi:namedview
     pagecolor="#ffffff"
     bordercolor="#666666"
     borderopacity="1"
     objecttolerance="10"
     gridtolerance="10"
     guidetolerance="10"
     inkscape:pageopacity="0"
     inkscape:pageshadow="2"
     inkscape:window-width="1366"
     inkscape:window-height="705"
     id="namedview8"
     showgrid="false"
     inkscape:zoom="3.6875"
     inkscape:cx="-49.220339"
     inkscape:cy="32"
     inkscape:window-x="-8"
     inkscape:window-y="-8"
     inkscape:window-maximized="1"
     inkscape:current-layer="svg6" />
  <g
     id="g4"
     style="fill:#0a0000;fill-opacity:1">
    <path
       fill="#1D1D1B"
       d="M28.941,31.786L0.613,60.114c-0.787,0.787-0.787,2.062,0,2.849c0.393,0.394,0.909,0.59,1.424,0.59   c0.516,0,1.031-0.196,1.424-0.59l28.541-28.541l28.541,28.541c0.394,0.394,0.909,0.59,1.424,0.59c0.515,0,1.031-0.196,1.424-0.59   c0.787-0.787,0.787-2.062,0-2.849L35.064,31.786L63.41,3.438c0.787-0.787,0.787-2.062,0-2.849c-0.787-0.786-2.062-0.786-2.848,0   L32.003,29.15L3.441,0.59c-0.787-0.786-2.061-0.786-2.848,0c-0.787,0.787-0.787,2.062,0,2.849L28.941,31.786z"
       id="path2"
       style="fill:#0a0000;fill-opacity:1" />
  </g>
</svg>
